<svg width="16" height="14" viewBox="0 0 16 14" fill="none" xmlns="http://www.w3.org/2000/svg">
<path id="Path" d="M15.5 13.3209C15.5 13.3209 15.5 10.8519 13.6281 9.95461C12.4434 9.38663 12.8999 9.82114 11.4454 9.24006C9.99114 8.65989 9.64662 8.47019 9.64662 8.47019L9.63373 7.13934C9.63373 7.13934 10.1784 6.74097 10.3483 5.48239C10.6884 5.57724 10.8035 5.09824 10.822 4.79223C10.8421 4.49661 11.0231 3.5752 10.6071 3.65741C10.6921 3.04223 10.7589 2.486 10.7289 2.19151C10.6249 1.15808 9.88333 0.0788166 8.01142 0C6.42005 0.0788166 5.38695 1.15876 5.28265 2.19219C5.25265 2.48668 5.31382 3.04246 5.3989 3.65876C4.98313 3.57543 5.16219 4.49865 5.18047 4.79404C5.20062 5.10005 5.31312 5.5804 5.65389 5.48555C5.82311 6.74435 6.36778 7.14566 6.36778 7.14566L6.35419 8.48374C6.35419 8.48374 6.00967 8.68632 4.5554 9.26649C3.10114 9.84779 3.55722 9.38686 2.37248 9.95461C0.500104 10.8523 0.500104 13.3209 0.500104 13.3209C0.49987 13.3214 0.500104 13.322 0.500104 13.3225C0.500104 13.6967 0.814863 14 1.20321 14H14.7967C15.185 14 15.4998 13.6967 15.4998 13.3225C15.4998 13.3218 15.5 13.3214 15.5 13.3209Z" fill="white"/>
</svg>
