<svg width="10" height="14" viewBox="0 0 10 14" fill="none" xmlns="http://www.w3.org/2000/svg">
<path id="Vector" d="M8.75 5.25H8.33333V3.5C8.33333 1.56975 6.83833 0 5 0C3.16167 0 1.66667 1.56975 1.66667 3.5V5.25H1.25C0.561111 5.25 0 5.83858 0 6.5625V12.6875C0 13.4114 0.561111 14 1.25 14H8.75C9.43889 14 10 13.4114 10 12.6875V6.5625C10 5.83858 9.43889 5.25 8.75 5.25ZM2.77778 3.5C2.77778 2.21317 3.77444 1.16667 5 1.16667C6.22556 1.16667 7.22222 2.21317 7.22222 3.5V5.25H2.77778V3.5ZM5.55556 9.7545V11.0833C5.55556 11.4053 5.30722 11.6667 5 11.6667C4.69278 11.6667 4.44444 11.4053 4.44444 11.0833V9.7545C4.11389 9.55208 3.88889 9.17992 3.88889 8.75C3.88889 8.10658 4.38722 7.58333 5 7.58333C5.61278 7.58333 6.11111 8.10658 6.11111 8.75C6.11111 9.17992 5.88611 9.55208 5.55556 9.7545Z" fill="white"/>
</svg>
