<svg width="12" height="14" viewBox="0 0 12 14" fill="none" xmlns="http://www.w3.org/2000/svg">
<g id="notification">
<path id="Vector" d="M5.99691 0C4.73974 0 3.53406 0.499059 2.64511 1.38739C1.75616 2.27572 1.25675 3.48055 1.25675 4.73684V8.43158L0.207597 10.0105C0.0818445 10.2043 0.0105163 10.4282 0.00107632 10.659C-0.00836362 10.8897 0.0444318 11.1188 0.153938 11.3221C0.263444 11.5255 0.425635 11.6957 0.623538 11.815C0.821441 11.9342 1.04778 11.9981 1.27887 12H10.7149C10.9475 11.9992 11.1756 11.9356 11.3749 11.8159C11.5742 11.6961 11.7375 11.5247 11.8473 11.3199C11.9571 11.115 12.0094 10.8842 11.9986 10.652C11.9879 10.4199 11.9145 10.1949 11.7862 10.0011L10.7371 8.43158V4.73684C10.7371 3.48055 10.2377 2.27572 9.3487 1.38739C8.45975 0.499059 7.25408 0 5.99691 0Z" fill="white"/>
<path id="Vector_2" d="M6 14C6.4388 13.9996 6.86667 13.9033 7.2248 13.7243C7.58293 13.5452 7.85374 13.2922 8 13H4C4.14626 13.2922 4.41707 13.5452 4.7752 13.7243C5.13333 13.9033 5.5612 13.9996 6 14Z" fill="white"/>
</g>
</svg>
