<svg width="20" height="20" viewBox="0 0 20 20" fill="none" xmlns="http://www.w3.org/2000/svg">
<path id="profile" d="M17.5044 14.2209C15.9247 13.4095 16.5334 14.0302 14.5941 13.2001C12.655 12.3713 12.1956 12.1003 12.1956 12.1003L12.1784 10.1991C12.1784 10.1991 12.9047 9.62995 13.1312 7.83198C13.5847 7.96748 13.7381 7.2832 13.7628 6.84604C13.7897 6.42373 14.0309 5.10743 13.4762 5.22487C13.5897 4.34604 13.6787 3.55143 13.6387 3.13073C13.5 1.65441 12.5112 0.112595 10.0153 0C7.89344 0.112595 6.51594 1.65537 6.37687 3.13169C6.33687 3.55239 6.41844 4.34637 6.53187 5.2268C5.9775 5.10776 6.21625 6.42664 6.24062 6.84863C6.2675 7.28578 6.4175 7.972 6.87187 7.83649C7.0975 9.63479 7.82375 10.2081 7.82375 10.2081L7.80562 12.1196C7.80562 12.1196 7.34625 12.409 5.40719 13.2378C3.46812 14.0683 4.07625 13.4098 2.49656 14.2209C0 15.5033 0 19.0299 0 19.0299C0 19.5667 0.419687 20 0.9375 20H19.0625C19.5803 20 20 19.5667 20 19.0321C20.0003 19.0299 20.0003 15.5026 17.5044 14.2209Z" fill="#BEBAB3"/>
</svg>
