<svg width="24" height="24" viewBox="0 0 24 24" fill="none" xmlns="http://www.w3.org/2000/svg">
<g id="wheel 1" clip-path="url(#clip0_78_669)">
<path id="Vector" d="M23.1 10.208L21.804 10.078C21.717 9.629 21.599 9.188 21.454 8.762L22.51 8.003C22.928 7.702 23.05 7.138 22.792 6.691L21.994 5.31C21.737 4.864 21.188 4.687 20.717 4.898L19.535 5.432C19.236 5.089 18.912 4.765 18.569 4.466L19.103 3.283C19.314 2.813 19.137 2.264 18.691 2.006L17.31 1.209C16.862 0.951 16.299 1.073 15.998 1.491L15.239 2.547C14.813 2.401 14.372 2.284 13.923 2.197L13.793 0.901C13.741 0.387 13.313 0 12.797 0H11.202C10.686 0 10.258 0.387 10.207 0.9L10.077 2.196C9.628 2.283 9.187 2.401 8.761 2.546L8.002 1.491C7.702 1.073 7.138 0.951 6.69 1.209L5.31 2.006C4.863 2.264 4.686 2.813 4.898 3.284L5.432 4.466C5.088 4.765 4.765 5.088 4.466 5.432L3.283 4.897C2.813 4.686 2.264 4.863 2.006 5.31L1.209 6.69C0.951 7.138 1.073 7.702 1.491 8.002L2.547 8.761C2.401 9.187 2.284 9.628 2.197 10.077L0.901 10.207C0.387 10.259 0 10.687 0 11.203V12.798C0 13.314 0.387 13.742 0.9 13.793L2.196 13.923C2.283 14.372 2.401 14.813 2.546 15.239L1.49 15.998C1.072 16.299 0.95 16.863 1.208 17.31L2.005 18.691C2.263 19.138 2.813 19.316 3.282 19.103L4.464 18.569C4.763 18.912 5.087 19.236 5.43 19.535L4.896 20.718C4.685 21.188 4.862 21.737 5.308 21.995L6.689 22.792C7.137 23.051 7.701 22.929 8.001 22.51L8.76 21.454C9.186 21.6 9.627 21.717 10.076 21.804L10.206 23.1C10.259 23.613 10.687 24 11.203 24H12.798C13.314 24 13.742 23.613 13.793 23.1L13.923 21.804C14.372 21.717 14.813 21.599 15.239 21.454L15.998 22.51C16.299 22.928 16.861 23.049 17.31 22.792L18.691 21.995C19.137 21.737 19.315 21.188 19.103 20.718L18.569 19.536C18.912 19.237 19.236 18.913 19.535 18.57L20.718 19.104C21.188 19.315 21.738 19.139 21.995 18.692L22.792 17.311C23.05 16.864 22.928 16.3 22.51 15.999L21.454 15.24C21.6 14.814 21.717 14.373 21.804 13.924L23.1 13.794C23.613 13.741 24 13.313 24 12.797V11.202C24 10.687 23.613 10.259 23.1 10.208ZM12 5C15.519 5 18.432 7.613 18.92 11H14.288C13.901 10.119 13.023 9.5 12 9.5C11.907 9.5 11.818 9.518 11.727 9.528L9.405 5.504C10.208 5.182 11.083 5 12 5ZM5 12C5 9.773 6.049 7.79 7.674 6.507L9.993 10.523C9.687 10.939 9.5 11.446 9.5 12C9.5 12.554 9.687 13.061 9.993 13.476L7.674 17.492C6.049 16.209 5 14.227 5 12ZM12 19C11.083 19 10.208 18.818 9.405 18.495L11.728 14.472C11.818 14.482 11.907 14.5 12 14.5C13.023 14.5 13.901 13.881 14.288 13H18.92C18.432 16.387 15.519 19 12 19Z" fill="#BEBAB3"/>
</g>
<defs>
<clipPath id="clip0_78_669">
<rect width="24" height="24" fill="white"/>
</clipPath>
</defs>
</svg>
